<?xml version="1.0" standalone="no"?>
<!DOCTYPE svg PUBLIC "-//W3C//DTD SVG 20010904//EN"
 "http://www.w3.org/TR/2001/REC-SVG-20010904/DTD/svg10.dtd">
<svg version="1.0" xmlns="http://www.w3.org/2000/svg"
 width="512.000000pt" height="512.000000pt" viewBox="0 0 512.000000 512.000000"
 preserveAspectRatio="xMidYMid meet">

<g transform="translate(0.000000,512.000000) scale(0.100000,-0.100000)"
fill="#000000" stroke="none">
<path d="M1658 4658 c-9 -7 -32 -58 -51 -113 -54 -152 -44 -140 -83 -110 -37
28 -66 32 -83 11 -7 -8 -21 -50 -31 -94 -25 -102 -66 -206 -147 -367 l-65
-131 -75 -34 c-182 -81 -387 -249 -510 -416 -334 -454 -333 -1079 1 -1525 160
-213 405 -393 643 -473 l68 -23 3 -52 c3 -46 0 -56 -32 -95 -41 -49 -47 -90
-16 -106 31 -17 50 -6 108 60 48 54 57 60 93 60 21 0 39 -5 39 -10 0 -6 -9
-52 -21 -102 -24 -109 -17 -138 30 -138 16 0 33 6 39 13 5 6 21 62 34 122 21
96 27 110 46 113 22 3 22 1 22 -115 0 -129 11 -163 54 -163 41 0 46 17 46 152
l0 128 25 0 c17 0 26 -7 30 -22 3 -13 14 -63 25 -112 24 -103 32 -116 71 -116
48 0 53 25 26 145 l-24 105 41 0 c38 0 45 -5 102 -67 58 -64 63 -67 90 -58 46
16 44 55 -5 113 -35 41 -41 55 -41 94 0 33 5 48 16 52 24 9 44 7 44 -5 0 -24
83 -186 134 -263 30 -45 86 -117 124 -161 l71 -80 -20 -33 c-24 -41 -24 -74
-1 -94 9 -8 136 -77 282 -153 146 -76 281 -147 302 -158 50 -27 78 -18 106 36
l23 43 82 -13 c112 -16 282 -16 397 2 426 64 792 326 979 701 91 181 131 358
131 574 0 294 -85 550 -261 791 l-49 66 0 149 c0 82 5 187 10 234 30 248 32
292 14 311 -26 29 -50 23 -127 -31 -39 -27 -72 -49 -73 -47 -1 1 15 76 37 167
21 91 39 168 39 172 0 15 -33 38 -53 38 -14 0 -57 -33 -114 -85 -50 -47 -93
-85 -96 -85 -3 0 -12 18 -21 39 -16 40 -45 59 -70 44 -7 -4 -46 -43 -86 -86
-80 -85 -192 -179 -315 -262 l-80 -55 -170 -4 c-107 -3 -196 -10 -240 -21
-131 -30 -117 -33 -144 32 -114 272 -344 515 -624 658 l-102 52 -66 131 c-37
73 -95 203 -129 289 -75 192 -82 203 -120 203 -26 0 -33 -8 -72 -80 -24 -44
-45 -80 -48 -80 -3 0 -23 71 -45 157 -46 183 -69 218 -117 181z m63 -367 c38
-151 52 -177 92 -167 20 5 36 26 73 96 25 49 49 88 54 85 4 -2 19 -39 34 -82
15 -43 68 -160 116 -260 l89 -182 106 -51 c246 -121 443 -310 565 -543 71
-136 71 -128 -6 -161 -36 -16 -102 -51 -146 -77 -45 -27 -82 -49 -83 -49 -1 0
-6 24 -9 53 -11 79 -52 235 -86 323 -37 98 -131 274 -151 287 -25 16 -68 0
-75 -27 -4 -17 7 -46 40 -102 86 -148 149 -333 176 -516 l13 -87 -85 -90
c-184 -193 -301 -426 -344 -686 -21 -132 -14 -365 14 -480 15 -59 17 -82 9
-87 -7 -4 -52 -17 -102 -29 -127 -31 -366 -38 -507 -14 -624 104 -1074 643
-1044 1250 15 309 139 582 364 802 94 91 195 161 336 232 l111 56 80 160 c44
88 96 205 114 260 19 55 35 102 37 104 2 2 15 -6 30 -18 54 -43 82 -24 115 79
13 39 26 67 29 63 4 -5 22 -68 41 -142z m2474 -1015 c-37 -156 -36 -178 6
-191 17 -6 43 8 112 55 l90 63 -7 -47 c-18 -118 -26 -234 -26 -388 l0 -166 63
-84 c111 -147 189 -322 227 -507 25 -124 27 -331 4 -451 -107 -567 -605 -970
-1199 -970 -87 0 -211 13 -221 23 -2 2 -1 20 3 41 4 29 9 36 22 31 34 -14 259
-17 344 -6 242 32 468 138 638 299 396 373 460 973 154 1439 -71 107 -223 262
-325 330 -218 146 -422 208 -685 208 -312 -1 -560 -96 -788 -305 -129 -117
-261 -340 -307 -515 -92 -355 -3 -743 236 -1029 l65 -77 -25 -29 -24 -30 -55
60 c-199 214 -317 523 -317 828 0 674 555 1197 1252 1180 l126 -3 99 67 c120
81 241 179 307 247 l50 51 21 -38 c31 -56 58 -54 130 12 33 29 61 53 62 52 1
-1 -13 -69 -32 -150z m-649 -427 c162 -22 329 -86 474 -180 81 -53 233 -204
288 -286 289 -429 248 -956 -103 -1309 -133 -134 -289 -224 -468 -268 -109
-28 -227 -43 -187 -24 193 89 279 146 390 258 163 164 276 378 331 625 22 97
17 352 -9 447 -49 181 -105 281 -222 398 -70 70 -102 94 -180 133 -131 65
-199 81 -345 81 -148 0 -246 -23 -390 -94 -125 -61 -211 -126 -317 -239 -259
-277 -375 -666 -303 -1013 7 -35 11 -65 10 -67 -6 -6 -62 112 -89 189 -47 129
-59 204 -59 355 1 173 28 289 103 440 196 395 627 617 1076 554z m171 -254
c240 -76 410 -285 459 -566 96 -546 -327 -1139 -851 -1194 l-60 -6 78 39 c192
98 359 273 475 499 265 515 147 1041 -237 1061 -95 5 -166 -10 -266 -58 -371
-179 -669 -727 -618 -1137 6 -48 9 -90 7 -92 -8 -9 -75 149 -95 224 -28 105
-30 312 -5 430 78 359 345 678 660 786 47 16 111 34 143 39 90 14 220 4 310
-25z m-75 -275 c80 -23 171 -123 198 -220 91 -318 -93 -806 -395 -1049 -78
-62 -217 -137 -235 -126 -18 11 -11 30 21 61 127 121 278 397 336 613 50 186
33 315 -47 369 -125 85 -363 -120 -540 -464 -44 -86 -106 -259 -125 -347 -8
-37 -35 -32 -48 8 -5 17 -10 89 -10 160 -1 104 4 148 22 220 77 303 276 586
507 721 96 56 226 79 316 54z m-163 -444 c36 -44 12 -220 -54 -387 -48 -123
-132 -272 -204 -362 -84 -105 -80 -103 -139 -67 -27 18 -67 38 -88 45 -36 12
-39 16 -36 46 6 55 58 202 105 296 136 271 358 499 416 429z m-484 -881 c100
-48 158 -142 159 -255 1 -53 -5 -77 -31 -132 -18 -38 -34 -68 -37 -68 -17 0
-506 265 -506 274 0 24 66 120 102 149 88 71 209 83 313 32z"/>
<path d="M1513 3724 c-17 -7 -67 -172 -92 -304 -106 -544 -86 -1291 46 -1750
28 -98 49 -126 87 -116 36 9 41 42 17 117 -87 264 -136 778 -113 1192 18 319
48 526 108 736 20 68 24 98 17 110 -10 16 -48 24 -70 15z"/>
<path d="M1872 3718 c-17 -17 -15 -40 12 -132 128 -426 146 -1200 41 -1721
-13 -67 -33 -150 -45 -185 -30 -99 -24 -130 27 -130 31 0 50 33 79 137 125
453 144 1191 43 1721 -26 140 -67 283 -86 305 -19 20 -54 22 -71 5z"/>
<path d="M1043 3513 c-234 -366 -293 -957 -142 -1432 33 -103 99 -247 148
-323 36 -56 70 -64 96 -24 16 23 14 29 -40 129 -132 248 -186 474 -186 777 0
310 61 558 199 803 42 75 43 79 28 102 -29 43 -61 33 -103 -32z"/>
</g>
</svg>
